HIERARCHY
ROOT Hips
{
	OFFSET 0.000000 0.000000 0.000000
	CHANNELS 6 Xposition Yposition Zposition Xrotation Yrotation Zrotation
	JOINT LeftUpLeg_virtual
	{
		OFFSET 0.000000 0.000000 0.000000
		CHANNELS 3 Xrotation Yrotation Zrotation
		JOINT LeftUpLeg
		{
			OFFSET 10.205400 -3.823500 0.155100
			CHANNELS 3 Xrotation Yrotation Zrotation
			JOINT LeftLeg
			{
				OFFSET 0.708757 -12.982077 0.567790
				CHANNELS 3 Xrotation Yrotation Zrotation
				JOINT LeftFoot
				{
					OFFSET -0.708756 -10.717838 -2.184338
					CHANNELS 3 Xrotation Yrotation Zrotation
					JOINT LeftToeBase
					{
						OFFSET 0.108149 -7.191104 7.560241
						CHANNELS 3 Xrotation Yrotation Zrotation
						JOINT LeftToe_End
						{
							OFFSET 0.070230 0.081724 4.490308
							CHANNELS 3 Xrotation Yrotation Zrotation
							End Site
							{
								OFFSET 0 0 0
							}
						}
					}
				}
			}
		}
	}
	JOINT RightUpLeg_virtual
	{
		OFFSET 0.000000 0.000000 0.000000
		CHANNELS 3 Xrotation Yrotation Zrotation
		JOINT RightUpLeg
		{
			OFFSET -10.205400 -3.823500 0.005500
			CHANNELS 3 Xrotation Yrotation Zrotation
			JOINT RightLeg
			{
				OFFSET -0.708756 -12.982134 0.610632
				CHANNELS 3 Xrotation Yrotation Zrotation
				JOINT RightFoot
				{
					OFFSET 0.708754 -10.717769 -1.945823
					CHANNELS 3 Xrotation Yrotation Zrotation
					JOINT RightToeBase
					{
						OFFSET -0.108140 -7.191069 7.372968
						CHANNELS 3 Xrotation Yrotation Zrotation
						JOINT RightToe_End
						{
							OFFSET -0.070227 0.081735 4.479403
							CHANNELS 3 Xrotation Yrotation Zrotation
							End Site
							{
								OFFSET 0 0 0
							}
						}
					}
				}
			}
		}
	}
	JOINT Spine_virtual
	{
		OFFSET 0.000000 0.000000 0.000000
		CHANNELS 3 Xrotation Yrotation Zrotation
		JOINT Spine
		{
			OFFSET 0.000000 6.876099 0.125700
			CHANNELS 3 Xrotation Yrotation Zrotation
			JOINT Spine1
			{
				OFFSET 0.000000 5.730043 0.104720
				CHANNELS 3 Xrotation Yrotation Zrotation
				JOINT Spine1_split
				{
					OFFSET 0.000000 5.730043 0.104720
					CHANNELS 3 Xrotation Yrotation Zrotation
					JOINT Spine2
					{
						OFFSET 0.000000 5.730043 0.104720
						CHANNELS 3 Xrotation Yrotation Zrotation
						JOINT Neck_virtual
						{
							OFFSET 0.000000 0.000000 0.000000
							CHANNELS 3 Xrotation Yrotation Zrotation
							JOINT Neck
							{
								OFFSET 0.000000 10.314075 0.188496
								CHANNELS 3 Xrotation Yrotation Zrotation
								JOINT Head
								{
									OFFSET 0.000000 7.643700 -2.377400
									CHANNELS 3 Xrotation Yrotation Zrotation
									JOINT HeadTop_End
									{
										OFFSET 0.000000 43.788605 -13.619600
										CHANNELS 3 Xrotation Yrotation Zrotation
										End Site
										{
											OFFSET 0 0 0
										}
									}
								}
							}
						}
						JOINT LeftShoulder_virtual
						{
							OFFSET 0.000000 0.000000 0.000000
							CHANNELS 3 Xrotation Yrotation Zrotation
							JOINT LeftShoulder
							{
								OFFSET 2.196100 4.412489 0.087492
								CHANNELS 3 Xrotation Yrotation Zrotation
								JOINT LeftShoulder_split
								{
									OFFSET 2.196100 4.412489 0.087492
									CHANNELS 3 Xrotation Yrotation Zrotation
									JOINT LeftArm
									{
										OFFSET 8.771219 -2.981674 -0.026999
										CHANNELS 3 Xrotation Yrotation Zrotation
										JOINT LeftForeArm
										{
											OFFSET 8.512804 0.000000 -0.000000
											CHANNELS 3 Xrotation Yrotation Zrotation
											JOINT LeftHand
											{
												OFFSET 18.484802 0.000000 -0.000000
												CHANNELS 3 Xrotation Yrotation Zrotation
												End Site
												{
													OFFSET 0 0 0
												}
											}
										}
									}
								}
							}
						}
						JOINT RightShoulder_virtual
						{
							OFFSET 0.000000 0.000000 0.000000
							CHANNELS 3 Xrotation Yrotation Zrotation
							JOINT RightShoulder
							{
								OFFSET -2.196100 4.412496 0.070690
								CHANNELS 3 Xrotation Yrotation Zrotation
								JOINT RightShoulder_split
								{
									OFFSET -2.196100 4.412496 0.070690
									CHANNELS 3 Xrotation Yrotation Zrotation
									JOINT RightArm
									{
										OFFSET -8.771282 -2.981682 -0.094208
										CHANNELS 3 Xrotation Yrotation Zrotation
										JOINT RightForeArm
										{
											OFFSET -8.494598 0.000000 0.000000
											CHANNELS 3 Xrotation Yrotation Zrotation
											JOINT RightHand
											{
												OFFSET -18.483803 0.000000 0.000001
												CHANNELS 3 Xrotation Yrotation Zrotation
												End Site
												{
													OFFSET 0 0 0
												}
											}
										}
									}
								}
							}
						}
					}
				}
			}
		}
	}
}
MOTION
Frames: 11
Frame Time: 0.03333333
2.257109 29.402935 -3.841606 0.000000 0.000000 0.000000 -1.450947 -64.590872 0.088241 -39.474153 21.799421 47.957623 65.239645 -2.165600 -0.410297 -7.161372 7.501517 -14.285909 -2.035598 0.910140 -4.215010 0.000000 0.000000 0.000000 0.222162 -62.639228 1.344135 -21.154892 -20.209263 -36.014799 44.366604 9.325768 0.615028 -21.913351 -6.671322 18.780273 -2.649598 2.037783 0.565965 0.000000 0.000000 0.000000 0.116629 -62.664779 0.772813 7.813678 1.125318 -6.314656 2.105964 0.836407 -2.565179 2.052915 3.236638 -1.146823 0.000000 0.000000 0.000000 2.299720 -0.024814 -2.827221 -0.038590 0.998440 1.786239 -0.798822 44.018906 -6.901093 0.000000 0.000000 0.000000 3.276668 0.438398 -2.570785 9.848244 9.993395 1.773725 -0.855680 -1.441050 4.738402 6.940638 -5.892959 -60.129120 -19.489364 -44.973012 -10.797129 0.000000 0.000000 0.000000 2.988595 0.384811 -3.077428 0.533590 2.148574 1.864320 4.229881 2.216619 1.176365 18.428223 20.475365 56.707994 -3.243820 45.366267 2.998787 0.000000 0.000000 0.000000 
2.108437 28.876331 -3.376440 0.000000 0.000000 0.000000 1.747885 -67.918179 3.563199 -40.449053 16.010021 45.562669 64.528383 -4.279347 0.765766 -7.568799 4.144967 -18.671427 -1.231259 0.622243 -2.093835 0.000000 0.000000 0.000000 3.234870 -66.990823 4.830632 -24.911105 -16.144520 -37.549180 46.010815 11.727081 0.594458 -21.919301 -5.853715 21.242406 -0.757167 2.740850 -0.730504 0.000000 0.000000 0.000000 2.760323 -67.214526 3.879076 8.074347 1.434471 -7.628680 1.835360 1.459973 -3.266140 1.326145 2.043314 -0.051702 0.000000 0.000000 0.000000 2.173003 0.437556 -3.484859 0.278503 1.425557 1.563921 -0.870556 47.470993 -6.688567 0.000000 0.000000 0.000000 2.882943 0.783083 -3.279468 8.483194 9.399057 -0.619518 0.053015 0.153310 4.948825 -1.569800 0.890796 -56.028796 -13.838621 -41.914634 -6.315889 0.000000 0.000000 0.000000 2.486483 0.737680 -3.651186 0.197595 1.774031 1.810530 3.523286 3.537606 1.487979 16.836637 18.623612 59.263659 -4.352909 37.594338 3.607226 0.000000 0.000000 0.000000 
1.997542 28.363323 -2.795597 0.000000 0.000000 0.000000 6.035494 -70.726363 7.925086 -40.537183 11.319636 42.223570 61.515484 -6.688777 1.576361 -9.400418 1.824079 -22.600481 -1.815744 0.245917 0.412525 0.000000 0.000000 0.000000 6.926397 -70.889263 8.927211 -28.085347 -11.210656 -38.601405 48.168813 13.739532 0.178678 -21.448654 -5.278485 22.906149 0.163779 2.854240 -0.824434 0.000000 0.000000 0.000000 6.356850 -71.025785 7.662170 8.568308 1.550373 -8.690676 1.852090 1.890169 -3.837064 0.894503 1.203021 0.590571 0.000000 0.000000 0.000000 2.147294 0.811018 -4.041326 0.361929 1.811044 1.486414 -1.584699 50.859713 -6.358840 0.000000 0.000000 0.000000 2.662197 1.046187 -3.882008 7.209504 8.625146 -2.514949 1.127893 1.532342 5.186935 -9.001015 6.779859 -51.813436 -9.844474 -41.198311 -3.583367 0.000000 0.000000 0.000000 2.279524 1.035077 -4.096569 -0.011810 1.797731 1.989168 3.368964 4.840569 1.304693 15.546757 15.971216 60.996472 -5.532929 31.101895 4.397681 0.000000 0.000000 0.000000 
1.914732 27.914391 -2.152760 0.000000 0.000000 0.000000 10.378725 -72.695179 12.181607 -39.755850 8.240849 38.772481 57.193678 -8.224046 1.514629 -12.729829 1.616819 -24.289659 -2.712218 -0.007567 1.806444 0.000000 0.000000 0.000000 10.531397 -73.818793 12.827482 -30.135771 -6.770266 -39.455817 50.026850 15.252762 -0.413430 -20.826970 -4.903145 24.067230 0.487596 2.511430 0.069443 0.000000 0.000000 0.000000 9.729664 -73.630921 11.127423 9.278796 1.493969 -9.338831 2.203388 2.101707 -4.187878 1.034212 0.581332 1.252631 0.000000 0.000000 0.000000 2.309963 1.070036 -4.415153 0.088005 2.107280 1.515063 -2.996842 53.904731 -5.891868 0.000000 0.000000 0.000000 2.716914 1.240442 -4.289038 6.129477 7.535585 -4.131464 2.262922 2.154007 5.301469 -15.079225 11.383069 -47.889434 -6.951488 -42.017886 -1.879974 0.000000 0.000000 0.000000 2.426461 1.242255 -4.381284 -0.067142 2.183407 2.403355 3.699843 5.692956 0.867230 15.026047 13.085320 61.253034 -6.813185 27.001333 5.348523 0.000000 0.000000 0.000000 
1.857430 27.576813 -1.478960 0.000000 0.000000 0.000000 13.676326 -73.934967 15.225443 -38.597696 6.533518 36.052119 53.195579 -8.469653 0.656914 -15.882075 3.181051 -24.099523 -2.043807 0.079305 1.033573 0.000000 0.000000 0.000000 13.055096 -75.610741 15.418933 -30.676029 -4.054938 -40.515627 50.661497 16.351577 -0.955011 -20.394354 -4.508443 25.270935 0.661761 1.980664 1.332871 0.000000 0.000000 0.000000 11.999298 -75.145236 13.403228 10.093143 1.310812 -9.488224 2.829495 2.115274 -4.284951 0.937306 0.492768 1.451194 0.000000 0.000000 0.000000 2.711596 1.192482 -4.549367 -0.487927 2.303907 1.570310 -4.887342 56.299846 -5.386978 0.000000 0.000000 0.000000 3.052654 1.351520 -4.465199 5.282697 6.198086 -5.668114 2.789897 1.492088 5.116288 -19.370191 14.802900 -44.597088 -5.024570 -43.350336 -0.862959 0.000000 0.000000 0.000000 2.879337 1.341828 -4.463410 0.011436 2.750155 3.087988 4.434696 5.848234 -0.008879 15.179462 10.279467 60.341702 -8.268954 25.866469 6.489671 0.000000 0.000000 0.000000 
1.801030 27.394730 -0.972227 0.000000 0.000000 0.000000 14.960879 -74.450729 16.234637 -37.702876 5.390454 34.390221 50.746485 -8.306146 -0.228445 -16.714294 5.306484 -24.203559 -0.598587 0.426894 -1.198161 0.000000 0.000000 0.000000 13.703724 -76.163658 15.909633 -29.810948 -3.531875 -41.890172 49.692864 17.153274 -1.323031 -20.264017 -4.114474 26.958661 0.834714 1.472887 2.338399 0.000000 0.000000 0.000000 12.619687 -75.567601 14.003500 10.874617 1.015203 -9.194889 3.616766 1.977064 -4.158722 1.014074 0.723029 1.247409 0.000000 0.000000 0.000000 3.332128 1.173692 -4.442621 -1.281918 2.382669 1.585899 -7.016213 57.965439 -4.907562 0.000000 0.000000 0.000000 3.609813 1.377942 -4.406884 4.654464 4.636568 -7.217494 2.419986 0.280608 4.528347 -22.342273 17.316712 -42.194750 -3.696271 -44.471795 -0.216472 0.000000 0.000000 0.000000 3.572190 1.337143 -4.348737 0.192617 3.287362 3.881931 5.239156 5.523064 -0.938731 15.730233 7.443254 58.887507 -9.986911 27.298075 7.875333 0.000000 0.000000 0.000000 
1.688099 27.369181 -0.574863 0.000000 0.000000 0.000000 14.304322 -74.312622 15.413188 -37.062263 4.796670 33.758972 49.732335 -8.697919 -0.762538 -15.722247 6.780043 -25.101543 -0.627993 0.682749 -2.546378 0.000000 0.000000 0.000000 12.798590 -75.715010 14.768556 -28.096646 -5.117708 -43.308262 47.508098 17.714476 -1.493446 -20.335230 -3.806660 29.233749 0.775832 1.132179 2.655805 0.000000 0.000000 0.000000 11.951561 -74.994521 13.306166 11.462739 0.655514 -8.594815 4.405116 1.763871 -3.894450 0.843159 1.219181 0.660723 0.000000 0.000000 0.000000 4.095227 1.029509 -4.160914 -2.117987 2.362799 1.541958 -9.113446 58.830154 -4.439754 0.000000 0.000000 0.000000 4.233556 1.325175 -4.186249 4.168143 2.954907 -8.783525 1.342533 -1.130956 4.274850 -24.541460 19.471788 -40.393086 -2.749172 -45.230742 0.177648 0.000000 0.000000 0.000000 4.338354 1.233418 -4.103306 0.472649 3.624909 4.885235 5.893376 5.043075 -1.602084 16.349262 4.728444 57.691930 -11.872499 30.273031 9.453224 0.000000 0.000000 0.000000 
1.560970 27.475555 -0.313051 0.000000 0.000000 0.000000 12.835332 -73.512008 13.902006 -36.710214 5.032106 33.842406 48.865185 -9.696837 -0.916820 -14.314748 7.098769 -26.053864 -1.897413 0.689359 -2.325237 0.000000 0.000000 0.000000 10.977587 -74.560148 12.824002 -26.210557 -8.051950 -44.540896 44.846797 17.936893 -1.618183 -20.694165 -3.705399 31.604511 0.458171 1.009391 2.286624 0.000000 0.000000 0.000000 11.325125 -73.748271 12.612963 11.843977 0.249638 -7.885427 5.052712 1.526157 -3.609241 0.510173 2.032205 -0.157299 0.000000 0.000000 0.000000 4.809563 0.809360 -3.813685 -2.781348 2.149462 1.560501 -11.014249 58.886756 -3.832254 0.000000 0.000000 0.000000 4.755281 1.215529 -3.889488 3.763102 1.291333 -10.250124 0.200989 -2.317849 4.674393 -26.928706 21.392654 -38.960915 -1.850308 -45.658647 0.505097 0.000000 0.000000 0.000000 5.025705 1.062998 -3.821598 0.829235 3.746438 6.085688 6.441528 4.984651 -1.815402 16.853989 2.191674 57.385180 -13.797783 33.673570 11.138418 0.000000 0.000000 0.000000 
1.409296 27.681381 -0.260666 0.000000 0.000000 0.000000 11.193809 -72.067143 12.341835 -36.845411 5.858309 34.221642 47.466895 -11.381097 -0.689084 -13.143415 6.255362 -27.180161 -3.005514 0.458219 -1.087954 0.000000 0.000000 0.000000 9.051558 -72.938675 11.033995 -24.608062 -11.456271 -45.299444 42.404861 17.553064 -1.725323 -21.544131 -4.127392 33.141413 0.251213 1.061494 1.544395 0.000000 0.000000 0.000000 11.021822 -71.890685 12.205665 12.081298 -0.189510 -7.220251 5.499775 1.302149 -3.395269 0.557284 2.659148 -0.564790 0.000000 0.000000 0.000000 5.306283 0.554047 -3.498059 -3.233115 1.711746 1.765944 -12.650230 58.176177 -2.952962 0.000000 0.000000 0.000000 5.074688 1.061839 -3.601728 3.417354 -0.195026 -11.417502 -0.746963 -3.273761 5.158141 -29.758291 23.325193 -37.638102 -0.921804 -45.916674 0.745737 0.000000 0.000000 0.000000 5.517762 0.827246 -3.618053 1.251941 3.685445 7.332480 6.813132 5.551863 -1.557848 17.191166 -0.070474 57.980055 -15.489177 36.502221 12.683145 0.000000 0.000000 0.000000 
1.253454 27.931168 -0.270947 0.000000 0.000000 0.000000 10.168682 -70.245115 11.378348 -37.209330 7.038958 34.573953 45.226384 -13.157085 -0.432157 -12.609666 4.829012 -27.845788 -3.528304 0.038933 0.765947 0.000000 0.000000 0.000000 7.650873 -71.164923 9.970471 -23.502406 -14.718562 -45.567935 39.986994 16.428360 -1.775064 -23.000963 -5.091150 33.339502 0.343825 1.213823 0.670844 0.000000 0.000000 0.000000 11.139872 -69.620938 12.124236 12.276817 -0.650589 -6.689599 5.736782 1.051719 -3.266260 0.565669 3.132310 -0.753938 0.000000 0.000000 0.000000 5.538029 0.321439 -3.274746 -3.422213 1.046353 2.310263 -14.103466 56.857476 -1.757154 0.000000 0.000000 0.000000 5.191703 0.884094 -3.356888 3.125849 -1.266831 -12.146602 -0.999570 -4.258982 5.828049 -32.508190 25.220711 -36.346367 -0.045456 -46.612585 0.837638 0.000000 0.000000 0.000000 5.776240 0.557598 -3.526434 1.727803 3.473344 8.354354 7.193841 6.453745 -1.375532 17.181641 -1.975996 59.253701 -16.857590 38.441302 13.957434 0.000000 0.000000 0.000000 
1.100858 28.190876 -0.327484 0.000000 0.000000 0.000000 10.187444 -68.647909 11.400714 -37.627529 8.319301 34.600584 42.209811 -14.116993 -0.422861 -12.439068 3.653242 -27.462367 -3.750341 -0.422598 2.690740 0.000000 0.000000 0.000000 7.105435 -69.333851 9.797899 -23.077326 -17.230740 -45.610296 37.916904 15.008349 -1.847533 -24.293245 -6.189997 32.734300 0.700338 1.348312 -0.040939 0.000000 0.000000 0.000000 11.266361 -67.367051 12.073474 12.535719 -1.118980 -6.331198 5.814353 0.783076 -3.212224 0.771696 3.130311 -0.729966 0.000000 0.000000 0.000000 5.534835 0.145120 -3.133057 -3.345572 0.239480 3.165458 -15.363167 55.234353 -0.358098 0.000000 0.000000 0.000000 5.169956 0.685338 -3.152721 2.883227 -1.829030 -12.300532 -0.714376 -5.121789 6.148144 -34.779747 26.736586 -35.155096 0.706094 -47.668303 0.837855 0.000000 0.000000 0.000000 5.802782 0.288636 -3.496400 2.192130 3.143493 8.912936 7.599477 7.304026 -1.270736 16.775588 -3.428321 60.787277 -17.962008 39.806602 15.015638 0.000000 0.000000 0.000000 
